Disc 9 Of 9 Extras

First On Four Pt 1                       : 720x550 25m 11s
First On Four Pt 2                       : 720x552 24m 37s
The Comic Strip 1981                     : 720x554 29m 11s 
The Comic Strip A Retrospective 2005     : 720x406 53m 03s

Note. Video/Audio Bitrate varies slightly in all 4 clips

Format                                   : MPEG-4
File size                                : 0.98 GiB
Duration                                 : 2h 12mn 03s
Overall bit rate mode                    : Variable
Overall bit rate                         : 1 070 Kbps

Video
Format settings, CABAC                   : Yes
Format settings, ReFrames                : 1 frame
Codec ID                                 : avc1
Duration                                 : 2h 12mn 03s
Bit rate mode                            : Variable
Bit rate                                 : 995 Kbps
Frame rate mode                          : Constant
Frame rate                               : 25.000 fps
Bit depth                                : 8 bits
Scan type                                : Progressive
Bits/(Pixel*Frame)                       : 0.100
Stream size                              : 911 MiB (93%)
Writing library                          : x264 core

Audio
Format                                   : AAC
Duration                                 : 2h 12mn 03s
Bit rate mode                            : Variable
Bit rate                                 : 72.0 Kbps
Maximum bit rate                         : 85.8 Kbps
Channel(s)                               : 2 channels
Channel positions                        : Front: L R
Sampling rate                            : 48.0 KHz
Compression mode                         : Lossy
Stream size                              : 69 MiB (7%)
Language                                 : English
Subtitles                                : None

IMDB.  http://www.imdb.com/title/tt0083402/

Screens.  http://bayimg.com/iANokAAeD

          http://bayimg.com/IaNooaAED

          http://bayimg.com/IAnoPAaEd

          http://bayimg.com/jAnocaAed      

Enjoy.